<?xml version="1.0" encoding="utf-8"?>

<!-- License Agreement at http://iconmonstr.com/license/ -->

<!DOCTYPE svg PUBLIC "-//W3C//DTD SVG 1.1//EN" "http://www.w3.org/Graphics/SVG/1.1/DTD/svg11.dtd">
<svg version="1.1" xmlns="http://www.w3.org/2000/svg" xmlns:xlink="http://www.w3.org/1999/xlink" x="0px" y="0px"
	 width="512px" height="512px" viewBox="0 0 512 512" enable-background="new 0 0 512 512" xml:space="preserve">
<path id="bitcoin-2-icon" d="M308.553,462h-138.02v-53.785H95.969l13.534-81.754h35.843v-146.15l-45.837,0.027l-0.017-78.365h71.019
	V50h138.052l0.001,55.46c60.837,10.345,78.777,43.666,84.036,63.482c6.015,22.662,0.776,48.438-12.311,67.254
	c25.178,17.791,39.34,49.593,34.948,82.63c-6.979,52.503-54.152,80.884-106.686,87.781V462z M253.985,431.782h24.35v-52.958
	l14.074-0.966c53.397-3.665,88.116-27.222,92.875-63.014c7.081-53.265-39.275-66.146-58.264-69.808
	c16.723-9.432,46.779-29.138,36.374-68.343c-9.118-34.357-56.332-44.411-85.048-44.411l-0.001-52.066h-24.351l0.002,51.973h-28.938
	V80.217h-24.325l-0.013,51.973h-71.004l0.004,17.913l17.88-0.011c17.515,0.005,27.963,10.037,27.963,26.834v152.051
	c0,16.828-11.124,27.701-28.339,27.701h-12.095l-3.528,21.319h69.124l0.016,53.784h24.317v-53.784h28.927V431.782z M214.986,356.707
	v-97.989c47.09,0,120.526-5.319,120.521,48.997C335.527,359.999,263.166,356.715,214.986,356.707z M245.204,288.431v38.015
	c14.958-0.171,29.863-0.933,41.94-4.036c25.336-6.513,22.513-22.941,4.268-29.063C278.179,288.907,259.112,288.372,245.204,288.431z
	 M214.986,243.972v-91.396c40.263-0.006,104.134-4.876,104.138,45.72C319.112,246.27,259.185,243.972,214.986,243.972z
	 M245.204,182.848v30.779c10.366-0.253,21.05-1.012,29.64-3.276c19.526-5.147,18.114-19.357,2.354-24.05
	C268.557,183.728,257.326,183.028,245.204,182.848z"/>
</svg>
