<?xml version="1.0" encoding="utf-8"?>

<!-- The icon can be used freely in both personal and commercial projects with no attribution required, but always appreciated. 
You may NOT sub-license, resell, rent, redistribute or otherwise transfer the icon without express written permission from iconmonstr.com -->

<!DOCTYPE svg PUBLIC "-//W3C//DTD SVG 1.1//EN" "http://www.w3.org/Graphics/SVG/1.1/DTD/svg11.dtd">
<svg version="1.1" xmlns="http://www.w3.org/2000/svg" xmlns:xlink="http://www.w3.org/1999/xlink" x="0px" y="0px"
	 width="512px" height="512px" viewBox="0 0 512 512" enable-background="new 0 0 512 512" xml:space="preserve">
<path id="coin-2-icon" d="M256,90c91.741,0,166,74.243,166,166c0,91.742-74.243,166-166,166c-91.739,0-166-74.243-166-166
	C90,164.259,164.244,90,256,90 M256,50C142.229,50,50,142.229,50,256c0,113.771,92.229,206,206,206c113.771,0,206-92.229,206-206
	C462,142.229,369.771,50,256,50L256,50z M274.091,347.732v22.817h-32.645v-20.408c-15.669-1.341-36.359-7.021-51.604-15.419
	l10.802-37.622c17.263,6.733,42.45,15.2,61.075,11.134c16.292-3.553,20.397-18.18,1.224-26.443
	c-16.195-7.272-71.928-14.875-71.928-61.486c0-19.31,14.474-45.849,50.432-53.698v-23.156h32.645v21.25
	c13.99,0.961,28.261,3.545,44.741,8.698c-1.649,7.2-8.772,38.448-8.772,38.448c-11.38-3.873-29.981-10.643-47.84-9.639
	c-22.065,1.24-23.646,17.354-8.771,24.794c30.515,13.799,74.71,25.534,74.71,66.689
	C328.202,325.496,303.424,343.608,274.091,347.732z"/>
</svg>
